<svg width="20" height="20" viewBox="0 0 20 20" fill="none" xmlns="http://www.w3.org/2000/svg">
<g id="vuesax/linear/card-tick">
<path id="Vector" d="M1.66669 8.3335H18.3334" stroke="#055FA7" stroke-width="1.2" stroke-miterlimit="10" stroke-linecap="round" stroke-linejoin="round"/>
<path id="Vector_2" d="M9.62359 17.0831H5.36527C2.40693 17.0831 1.65692 16.3498 1.65692 13.4248V6.57481C1.65692 3.92481 2.27361 3.07481 4.59861 2.94147C4.83195 2.93314 5.09027 2.9248 5.36527 2.9248H14.6236C17.5819 2.9248 18.3319 3.65814 18.3319 6.58314V10.2581" stroke="#055FA7" stroke-width="1.2" stroke-linecap="round" stroke-linejoin="round"/>
<path id="Vector_3" d="M5 13.3335H8.33333" stroke="#055FA7" stroke-width="1.2" stroke-miterlimit="10" stroke-linecap="round" stroke-linejoin="round"/>
<path id="Vector_4" d="M18.3334 14.9998C18.3334 15.6248 18.1583 16.2165 17.85 16.7165C17.275 17.6832 16.2167 18.3332 15 18.3332C13.7834 18.3332 12.725 17.6832 12.15 16.7165C11.8417 16.2165 11.6667 15.6248 11.6667 14.9998C11.6667 13.1582 13.1584 11.6665 15 11.6665C16.8417 11.6665 18.3334 13.1582 18.3334 14.9998Z" stroke="#055FA7" stroke-width="1.2" stroke-miterlimit="10" stroke-linecap="round" stroke-linejoin="round"/>
<path id="Vector_5" d="M13.7012 14.9998L14.5262 15.8248L16.3012 14.1831" stroke="#055FA7" stroke-width="1.2" stroke-linecap="round" stroke-linejoin="round"/>
</g>
</svg>
