<svg width="25" height="25" viewBox="0 0 25 25" fill="none" xmlns="http://www.w3.org/2000/svg">
<g id="vuesax/bold/notification-status">
<g id="notification-status">
<path id="Vector" d="M22 5.5C22 6.88071 20.8807 8 19.5 8C18.1193 8 17 6.88071 17 5.5C17 4.11929 18.1193 3 19.5 3C20.8807 3 22 4.11929 22 5.5Z" fill="#055FA7" stroke="#055FA7"/>
<path id="Vector_2" d="M20.1611 10.4497C20.2047 10.4434 20.2564 10.4357 20.3108 10.4256C20.3247 10.4238 20.3367 10.4218 20.3465 10.42H20.3479L20.395 10.4109C20.7164 10.3487 21 10.5843 21 10.9V16.98C21 17.0983 20.9915 17.2206 20.9816 17.3502C20.9717 17.4684 20.9631 17.5602 20.9468 17.6578L20.9434 17.678L20.9417 17.6985C20.9338 17.7934 20.9175 17.8939 20.8981 18.0006L20.8964 18.0095L20.8951 18.0184C20.7332 19.1383 20.3016 20.0212 19.6592 20.6624C19.0168 21.3037 18.1337 21.7332 17.0181 21.8952L17.0093 21.8965L17.0006 21.8981C16.8939 21.9175 16.7934 21.9338 16.6985 21.9417L16.678 21.9434L16.6578 21.9468C16.5602 21.9631 16.4684 21.9717 16.3502 21.9816C16.2206 21.9915 16.0983 22 15.98 22H8.02C7.90172 22 7.77944 21.9915 7.64976 21.9816C7.53163 21.9717 7.4398 21.9631 7.3422 21.9468L7.32197 21.9434L7.30152 21.9417C7.20663 21.9338 7.10613 21.9175 6.99944 21.8981L6.99068 21.8965L6.98186 21.8952C5.86628 21.7332 4.98319 21.3037 4.34075 20.6624C3.69842 20.0212 3.26682 19.1383 3.10485 18.0184L3.10355 18.0095L3.10193 18.0006C3.08254 17.8939 3.06618 17.7934 3.05827 17.6985L3.05657 17.678L3.0532 17.6578C3.03692 17.5601 3.02826 17.4683 3.0184 17.3501C3.00844 17.2204 3 17.0982 3 16.98V9.02C3 8.90177 3.00844 8.77955 3.0184 8.64995C3.02826 8.53173 3.03692 8.43986 3.0532 8.3422L3.05657 8.32197L3.05827 8.30152C3.06618 8.20663 3.08254 8.10613 3.10193 7.99944L3.10355 7.99053L3.10485 7.98157C3.26682 6.86166 3.69842 5.97883 4.34075 5.33761C4.98319 4.69627 5.86628 4.26682 6.98186 4.10481L6.99068 4.10353L6.99944 4.10193C7.10613 4.08254 7.20663 4.06618 7.30152 4.05827L7.32197 4.05657L7.3422 4.0532C7.43986 4.03692 7.53173 4.02826 7.64995 4.0184C7.77955 4.00844 7.90177 4 8.02 4H14.1C14.4157 4 14.6513 4.2836 14.5891 4.60499L14.58 4.65206V4.65353C14.5782 4.66329 14.5762 4.67532 14.5744 4.68925C14.5643 4.74362 14.5566 4.79528 14.5503 4.83885L14.5487 4.84935C14.5415 4.8985 14.5357 4.9388 14.5281 4.98056L14.5243 5.00145L14.5223 5.0226C14.4776 5.49142 14.5002 5.98971 14.5993 6.49601L14.6018 6.50871L14.6049 6.52127C14.6095 6.53944 14.6143 6.55954 14.6194 6.58117C14.6391 6.66343 14.664 6.7679 14.7004 6.87336C14.7919 7.23978 14.9362 7.58187 15.1206 7.89912C15.1835 8.022 15.2616 8.14362 15.3197 8.23399C15.3299 8.24982 15.3394 8.26469 15.3482 8.27844L15.3529 8.28594L15.358 8.29326C15.7227 8.8237 16.1763 9.27734 16.7067 9.64202L16.7141 9.64706L16.7216 9.65183C16.7353 9.66058 16.7502 9.67013 16.766 9.6803C16.8564 9.73838 16.978 9.81655 17.1009 9.87937C17.4181 10.0638 17.7602 10.2081 18.1266 10.2996C18.2321 10.336 18.3366 10.3609 18.4188 10.3806C18.4405 10.3857 18.4606 10.3905 18.4787 10.3951L18.4913 10.3982L18.504 10.4007C19.0103 10.4998 19.5086 10.5224 19.9774 10.4777L19.9985 10.4757L20.0194 10.4719C20.0612 10.4643 20.1015 10.4585 20.1506 10.4513L20.1611 10.4497ZM12.25 12.5H7.25C6.56386 12.5 6 13.0639 6 13.75C6 14.4361 6.56386 15 7.25 15H12.25C12.9361 15 13.5 14.4361 13.5 13.75C13.5 13.0639 12.9361 12.5 12.25 12.5ZM7.25 19H16.25C16.9361 19 17.5 18.4361 17.5 17.75C17.5 17.0639 16.9361 16.5 16.25 16.5H7.25C6.56386 16.5 6 17.0639 6 17.75C6 18.4361 6.56386 19 7.25 19Z" fill="#055FA7" stroke="#055FA7"/>
</g>
</g>
</svg>
