<svg width="20" height="20" viewBox="0 0 20 20" fill="none" xmlns="http://www.w3.org/2000/svg">
<g id="vuesax/linear/quote-up">
<g id="quote-up">
<g id="Group">
<g id="Group_2">
<path id="Vector" d="M1.66669 10.2915H6.50001C7.77501 10.2915 8.65002 11.2582 8.65002 12.4415V15.1249C8.65002 16.3082 7.77501 17.2748 6.50001 17.2748H3.8167C2.63337 17.2748 1.66669 16.3082 1.66669 15.1249V10.2915" stroke="#055FA7" stroke-width="1.5" stroke-linecap="round" stroke-linejoin="round"/>
<path id="Vector_2" d="M1.66669 10.2917C1.66669 5.25002 2.60838 4.41673 5.44171 2.7334" stroke="#055FA7" stroke-width="1.5" stroke-linecap="round" stroke-linejoin="round"/>
</g>
<g id="Group_3">
<path id="Vector_3" d="M11.3583 10.2915H16.1917C17.4667 10.2915 18.3417 11.2582 18.3417 12.4415V15.1249C18.3417 16.3082 17.4667 17.2748 16.1917 17.2748H13.5084C12.325 17.2748 11.3583 16.3082 11.3583 15.1249V10.2915" stroke="#055FA7" stroke-width="1.5" stroke-linecap="round" stroke-linejoin="round"/>
<path id="Vector_4" d="M11.3583 10.2917C11.3583 5.25002 12.3 4.41673 15.1333 2.7334" stroke="#055FA7" stroke-width="1.5" stroke-linecap="round" stroke-linejoin="round"/>
</g>
</g>
</g>
</g>
</svg>
