<svg width="20" height="20" viewBox="0 0 20 20" fill="none" xmlns="http://www.w3.org/2000/svg">
<g id="vuesax/linear/shopping-cart">
<g id="shopping-cart">
<path id="Vector" d="M1.66667 1.6665H3.11668C4.01668 1.6665 4.72501 2.4415 4.65001 3.33317L3.95834 11.6332C3.84167 12.9915 4.91667 14.1582 6.28333 14.1582H15.1583C16.3583 14.1582 17.4083 13.1748 17.5 11.9832L17.95 5.73317C18.05 4.34984 17 3.22483 15.6083 3.22483H4.85001" stroke="#055FA7" stroke-width="1.2" stroke-miterlimit="10" stroke-linecap="round" stroke-linejoin="round"/>
<path id="Vector_2" d="M13.5417 18.3333C14.117 18.3333 14.5833 17.867 14.5833 17.2917C14.5833 16.7164 14.117 16.25 13.5417 16.25C12.9664 16.25 12.5 16.7164 12.5 17.2917C12.5 17.867 12.9664 18.3333 13.5417 18.3333Z" stroke="#055FA7" stroke-width="1.2" stroke-miterlimit="10" stroke-linecap="round" stroke-linejoin="round"/>
<path id="Vector_3" d="M6.87499 18.3333C7.45029 18.3333 7.91666 17.867 7.91666 17.2917C7.91666 16.7164 7.45029 16.25 6.87499 16.25C6.2997 16.25 5.83333 16.7164 5.83333 17.2917C5.83333 17.867 6.2997 18.3333 6.87499 18.3333Z" stroke="#055FA7" stroke-width="1.5" stroke-miterlimit="10" stroke-linecap="round" stroke-linejoin="round"/>
<path id="Vector_4" d="M7.5 6.6665H17.5" stroke="#055FA7" stroke-width="1.5" stroke-miterlimit="10" stroke-linecap="round" stroke-linejoin="round"/>
</g>
</g>
</svg>
