<svg width="25" height="24" viewBox="0 0 25 24" fill="none" xmlns="http://www.w3.org/2000/svg">
<g id="vuesax/linear/wallet-add">
<path id="Vector" d="M18.6804 7.04997C18.4404 7.00997 18.1904 6.99998 17.9304 6.99998H7.93038C7.65038 6.99998 7.38038 7.01998 7.12038 7.05998C7.26038 6.77998 7.46038 6.52001 7.70038 6.28001L10.9504 3.02C12.3204 1.66 14.5404 1.66 15.9104 3.02L17.6604 4.78996C18.3004 5.41996 18.6404 6.21997 18.6804 7.04997Z" stroke="#055FA7" stroke-width="1.5" stroke-linecap="round" stroke-linejoin="round"/>
<g id="Group">
<path id="Vector_2" d="M9.92897 19C9.92897 19.75 9.71897 20.46 9.34897 21.06C8.65897 22.22 7.38897 23 5.92897 23C4.46897 23 3.19897 22.22 2.50897 21.06C2.13897 20.46 1.92897 19.75 1.92897 19C1.92897 16.79 3.71897 15 5.92897 15C8.13897 15 9.92897 16.79 9.92897 19Z" stroke="#055FA7" stroke-width="1.5" stroke-miterlimit="10" stroke-linecap="round" stroke-linejoin="round"/>
<g id="Group_2">
<path id="Vector_3" d="M7.42069 18.9795H4.44069" stroke="#055FA7" stroke-width="1.5" stroke-miterlimit="10" stroke-linecap="round" stroke-linejoin="round"/>
<path id="Vector_4" d="M5.92897 17.5195V20.5095" stroke="#055FA7" stroke-width="1.5" stroke-miterlimit="10" stroke-linecap="round" stroke-linejoin="round"/>
</g>
</g>
<path id="Vector_5" d="M22.929 12V17C22.929 20 20.929 22 17.929 22H8.55897C8.86897 21.74 9.13897 21.42 9.34897 21.06C9.71897 20.46 9.92897 19.75 9.92897 19C9.92897 16.79 8.13897 15 5.92897 15C4.72897 15 3.65897 15.53 2.92897 16.36V12C2.92897 9.28 4.56897 7.38 7.11897 7.06C7.37897 7.02 7.64897 7 7.92897 7H17.929C18.189 7 18.439 7.00999 18.679 7.04999C21.259 7.34999 22.929 9.26 22.929 12Z" stroke="#055FA7" stroke-width="1.5" stroke-linecap="round" stroke-linejoin="round"/>
<path id="Vector_6" d="M22.929 12.5H19.929C18.829 12.5 17.929 13.4 17.929 14.5C17.929 15.6 18.829 16.5 19.929 16.5H22.929" stroke="#055FA7" stroke-width="1.5" stroke-linecap="round" stroke-linejoin="round"/>
</g>
</svg>
